<svg xmlns="http://www.w3.org/2000/svg" viewBox="0 0 500 500"><g id="freepik--background-simple--inject-107"><path d="M341.55,444.53c50.69-11,93.93-44.41,106.44-96.29,7.74-32.13,6.57-74.51-8.23-104.51-14.62-29.65-42.69-49.27-65.44-72.19C344,141,320.37,99.9,284.32,76.17s-82.48-25.63-122.79-12.9c-32.29,10.2-55,27.17-73.5,55.46A205.64,205.64,0,0,0,56.3,206.54c-8.23,68.4,14.07,143.25,66.19,189.7,41.27,36.79,102,52.45,156,53.56C299.58,450.24,320.84,449,341.55,444.53Z" style="fill:#5B059E"></path><path d="M341.73,444.75c50.69-11,93.93-44.41,106.44-96.29,7.74-32.13,6.57-74.51-8.23-104.51-14.62-29.65-42.69-49.27-65.44-72.19-30.32-30.53-53.95-71.64-90-95.37S202,50.76,161.71,63.49c-32.29,10.2-55,27.17-73.5,55.46a205.64,205.64,0,0,0-31.73,87.81C48.25,275.17,70.55,350,122.67,396.46c41.27,36.79,102,52.45,156,53.56C299.76,450.46,321,449.26,341.73,444.75Z" style="fill:#fff;opacity:0.6"></path></g><g id="freepik--Graphics--inject-107"><path d="M200,196.76a1.06,1.06,0,0,1-.85-.47L169.35,150.4l-30.28,34-30.92-21.22-29.91,7.31-30.38,26a1,1,0,0,1-1.43-.15,1.11,1.11,0,0,1,.14-1.51h0l30.75-26.33,31.22-7.63,30.21,20.74L169.6,147,200.88,195a1.11,1.11,0,0,1-.25,1.49h0A1,1,0,0,1,200,196.76Z" style="fill:#263238"></path><path d="M49.75,195.63A2.54,2.54,0,1,1,47.2,193h0A2.61,2.61,0,0,1,49.75,195.63Z" style="fill:#fff"></path><path d="M77.78,166.82a2.67,2.67,0,1,1-2.54,2.67A2.6,2.6,0,0,1,77.78,166.82Z" style="fill:#fff"></path><path d="M108.34,159.35a2.67,2.67,0,1,1-2.53,2.67A2.61,2.61,0,0,1,108.34,159.35Z" style="fill:#fff"></path><path d="M138.91,180.34a2.67,2.67,0,1,1-2.54,2.67A2.6,2.6,0,0,1,138.91,180.34Z" style="fill:#fff"></path><path d="M172,148.69a2.54,2.54,0,1,1-2.54-2.67h0A2.61,2.61,0,0,1,172,148.69Z" style="fill:#fff"></path><path d="M202.57,195.63a2.54,2.54,0,1,1-5.07,0A2.62,2.62,0,0,1,200,193h0A2.6,2.6,0,0,1,202.57,195.63Z" style="fill:#fff"></path><path d="M351.86,118.22l3.34-1.51-.7-4-3.68-.29a16.28,16.28,0,0,0-1.83-3.48l1.88-3.21L348,102.86l-3.21,1.92a16.1,16.1,0,0,0-6.16-2.5l-.93-3.69h-4.07l-.95,3.71a16.49,16.49,0,0,0-3.63,1.15l-2.92-2.51-3.32,2.26,1.38,3.59a15.93,15.93,0,0,0-2.26,3l-3.82-.38-1.37,3.81,3.16,2.26a15.19,15.19,0,0,0-.23,2.69,10.65,10.65,0,0,0,0,1.13l-3.34,1.88,1.06,3.9h3.77a14.62,14.62,0,0,0,2.06,3.3l-1.63,3.39,3.12,2.6,3-2.15a16.18,16.18,0,0,0,3.64,1.54l.63,3.61,4,.34,1.22-3.43a16.1,16.1,0,0,0,3.88-.84l2.55,2.58,3.53-2-1-3.51a16.16,16.16,0,0,0,2.71-3l3.57.65,1.71-3.68-2.8-2.26A15.92,15.92,0,0,0,351.86,118.22Zm-6,0a10.14,10.14,0,1,1-10.14-10.14h0a10.11,10.11,0,0,1,10.12,10.08Z" style="fill:#263238"></path><path d="M353,117.7l.74-.34a2,2,0,0,0,1.16-2.2l-.15-.9a2,2,0,0,0-1.84-1.67l-.89-.07a2,2,0,0,1-1.66-1.14c-.24-.51-.5-1-.78-1.48a2,2,0,0,1,0-2l.46-.78a2.06,2.06,0,0,0-.32-2.47l-.64-.64a2,2,0,0,0-2.48-.3l-.79.47a2,2,0,0,1-2,0,16.36,16.36,0,0,0-4.07-1.66,2,2,0,0,1-1.44-1.46l-.23-.93a2,2,0,0,0-2-1.54h-.9a2,2,0,0,0-2,1.53l-.25,1a2,2,0,0,1-1.41,1.44c-.5.14-1,.29-1.47.47a2,2,0,0,1-2-.37l-.8-.69a2,2,0,0,0-2.46-.14l-.71.48a2,2,0,0,0-.75,2.41l.36.94a2,2,0,0,1-.31,2,14.85,14.85,0,0,0-.9,1.19,2,2,0,0,1-1.86.86l-1-.09a2,2,0,0,0-2.11,1.33l-.32.88a2,2,0,0,0,.73,2.34l.92.65a2,2,0,0,1,.84,1.83,13.76,13.76,0,0,0-.08,1.57h0a2.07,2.07,0,0,1-1,1.7l-.94.52a2,2,0,0,0-1,2.31l.23.87a2,2,0,0,0,2,1.5h1a2,2,0,0,1,1.75,1c.27.48.56.94.87,1.39a2,2,0,0,1,.15,2l-.41.85a2,2,0,0,0,.53,2.44l.69.58a2,2,0,0,0,2.49.09l.71-.5a2,2,0,0,1,2-.19q.76.36,1.56.66a2,2,0,0,1,1.27,1.54l.15.87a2,2,0,0,0,1.84,1.67l.92.08a2,2,0,0,0,2.08-1.35l.28-.78a2,2,0,0,1,1.55-1.31,15.67,15.67,0,0,0,1.68-.36,2,2,0,0,1,1.94.53l.59.6a2,2,0,0,0,2.45.33l.79-.45a2,2,0,0,0,1-2.31l-.22-.78a2,2,0,0,1,.51-2c.41-.41.81-.84,1.18-1.29a2,2,0,0,1,1.91-.68l.8.15a2,2,0,0,0,2.21-1.14l.38-.82a2,2,0,0,0-.57-2.44l-.6-.49a2,2,0,0,1-.74-1.86,15.7,15.7,0,0,0,.19-1.8A2,2,0,0,1,353,117.7Zm-7.18.52a10.14,10.14,0,1,1-10.14-10.14h0a10.11,10.11,0,0,1,10.12,10.08Z" style="fill:#fff;opacity:0.1"></path><path d="M397.91,168.64l5.2-2.35L402,160.07l-5.73-.46a23.62,23.62,0,0,0-2.88-5.41l2.95-5-4.46-4.43-5,3a24.51,24.51,0,0,0-9.56-3.94l-1.44-5.73h-6.32l-1.48,5.77a26.14,26.14,0,0,0-5.66,1.82l-4.53-3.9-5.17,3.52,2.15,5.58a23.42,23.42,0,0,0-3.52,4.71L345.4,155l-2.14,5.94,4.92,3.34a23.8,23.8,0,0,0-.35,4.22,12.78,12.78,0,0,0,0,1.75l-5.2,2.92,1.65,6.08h5.87a25.15,25.15,0,0,0,3.19,5.13l-2.53,5.24,4.85,4.07,4.68-3.51a24.73,24.73,0,0,0,5.66,2.39l.94,5.66,6.3.56,1.89-5.34a26.2,26.2,0,0,0,6.05-1.34l4,4,5.48-3.16-1.51-5.45a24.68,24.68,0,0,0,4.22-4.56l5.55,1,2.67-5.72-4.36-3.52A25.39,25.39,0,0,0,397.91,168.64Zm-9.35,0a15.78,15.78,0,1,1-15.78-15.78h0a15.78,15.78,0,0,1,15.78,15.68Z" style="fill:#263238"></path><path d="M397.91,168.64l5.2-2.35L402,160.07l-5.73-.46a23.62,23.62,0,0,0-2.88-5.41l2.95-5-4.46-4.43-5,3a24.51,24.51,0,0,0-9.56-3.94l-1.44-5.73h-6.32l-1.48,5.77a26.14,26.14,0,0,0-5.66,1.82l-4.53-3.9-5.17,3.52,2.15,5.58a23.42,23.42,0,0,0-3.52,4.71L345.4,155l-2.14,5.94,4.92,3.34a23.8,23.8,0,0,0-.35,4.22,12.78,12.78,0,0,0,0,1.75l-5.2,2.92,1.65,6.08h5.87a25.15,25.15,0,0,0,3.19,5.13l-2.53,5.24,4.85,4.07,4.68-3.51a24.73,24.73,0,0,0,5.66,2.39l.94,5.66,6.3.56,1.89-5.34a26.2,26.2,0,0,0,6.05-1.34l4,4,5.48-3.16-1.51-5.45a24.68,24.68,0,0,0,4.22-4.56l5.55,1,2.67-5.72-4.36-3.52A25.39,25.39,0,0,0,397.91,168.64Zm-9.35,0a15.78,15.78,0,1,1-15.78-15.78h0a15.78,15.78,0,0,1,15.78,15.68Z" style="fill:#fff;opacity:0.1"></path><path d="M120,261.41l4-1.8-.83-4.74-4.37-.35a18.93,18.93,0,0,0-2.17-4.13l2.23-3.81-3.41-3.4-3.8,2.28a19.31,19.31,0,0,0-7.32-3l-1.1-4.36H98.32l-1.13,4.39a19.84,19.84,0,0,0-4.31,1.37l-3.46-3-3.94,2.68,1.64,4.26a18.12,18.12,0,0,0-2.68,3.6L79.91,251l-1.64,4.53L82,258.19a17.91,17.91,0,0,0-.26,3.19,10,10,0,0,0,0,1.34l-4,2.22,1.26,4.64h4.47A17.79,17.79,0,0,0,86,273.49l-1.93,4,3.7,3.08,3.57-2.54a19,19,0,0,0,4.31,1.82l.75,4.29,4.8.4,1.45-4.07a19.16,19.16,0,0,0,4.61-1l3,3.05,4.19-2.38L113.27,276a18.81,18.81,0,0,0,3.22-3.51l4.23.78,2-4.37-3.32-2.68A19.56,19.56,0,0,0,120,261.41Zm-7.13,0a12,12,0,1,1-12-12h0a12,12,0,0,1,12,11.95Z" style="fill:#263238"></path><path d="M121.33,260.78l.88-.4a2.41,2.41,0,0,0,1.38-2.61l-.19-1.06a2.39,2.39,0,0,0-2.18-2l-1-.09a2.37,2.37,0,0,1-2-1.34,16.33,16.33,0,0,0-.92-1.76,2.39,2.39,0,0,1,0-2.41l.55-.93a2.41,2.41,0,0,0-.38-2.92l-.76-.76a2.4,2.4,0,0,0-2.94-.36l-.93.56a2.39,2.39,0,0,1-2.41,0,19.14,19.14,0,0,0-4.83-2,2.38,2.38,0,0,1-1.7-1.74l-.28-1.1a2.41,2.41,0,0,0-2.34-1.82h-1.07a2.42,2.42,0,0,0-2.34,1.81l-.3,1.17a2.35,2.35,0,0,1-1.67,1.71c-.59.16-1.17.34-1.75.56a2.39,2.39,0,0,1-2.36-.45l-1-.81a2.42,2.42,0,0,0-2.93-.17l-.83.57a2.41,2.41,0,0,0-.9,2.86l.43,1.11a2.34,2.34,0,0,1-.37,2.36c-.37.46-.73.93-1.06,1.42a2.38,2.38,0,0,1-2.21,1l-1.17-.12a2.41,2.41,0,0,0-2.51,1.58l-.38,1a2.41,2.41,0,0,0,.87,2.78l1.09.78a2.36,2.36,0,0,1,1,2.16,16.71,16.71,0,0,0-.08,1.87h0a2.43,2.43,0,0,1-1.21,2l-1.11.62a2.42,2.42,0,0,0-1.15,2.74l.28,1a2.42,2.42,0,0,0,2.33,1.78h1.16a2.36,2.36,0,0,1,2.08,1.21,18.63,18.63,0,0,0,1,1.64,2.34,2.34,0,0,1,.18,2.38l-.48,1a2.41,2.41,0,0,0,.63,2.9l.82.68a2.42,2.42,0,0,0,3,.11l.84-.6a2.4,2.4,0,0,1,2.41-.23,17.73,17.73,0,0,0,1.85.79,2.35,2.35,0,0,1,1.51,1.83l.18,1a2.4,2.4,0,0,0,2.18,2l1.09.1a2.42,2.42,0,0,0,2.47-1.6l.33-.93a2.39,2.39,0,0,1,1.84-1.56,17.38,17.38,0,0,0,2-.43,2.38,2.38,0,0,1,2.29.64l.7.71a2.41,2.41,0,0,0,2.91.39l.94-.53a2.41,2.41,0,0,0,1.13-2.74l-.25-.93a2.34,2.34,0,0,1,.6-2.32,20.46,20.46,0,0,0,1.4-1.54,2.38,2.38,0,0,1,2.27-.8l1,.17a2.41,2.41,0,0,0,2.62-1.35l.45-1a2.42,2.42,0,0,0-.67-2.9l-.72-.58a2.37,2.37,0,0,1-.88-2.2,17.27,17.27,0,0,0,.23-2.14A2.39,2.39,0,0,1,121.33,260.78Zm-8.51.63a12,12,0,1,1-12-12h0a12,12,0,0,1,12,11.95Z" style="fill:#fff;opacity:0.1"></path></g><g id="freepik--Clock--inject-107"><circle cx="392.97" cy="287.94" r="26.35" transform="translate(-79.51 169.2) rotate(-22.12)" style="fill:#263238"></circle><circle cx="392.97" cy="287.94" r="22.85" transform="matrix(0.16, -0.99, 0.99, 0.16, 45.44, 629.35)" style="fill:#fff;stroke:#263238;stroke-miterlimit:10"></circle><polyline points="378.15 292.15 392.97 287.94 392.97 267.21" style="fill:none;stroke:#263238;stroke-miterlimit:10;stroke-width:2px"></polyline></g><g id="freepik--Window--inject-107"><g id="freepik--Window--inject-1--inject-107"><line x1="358.12" y1="310.52" x2="358.12" y2="212.16" style="fill:none;stroke:#263238;stroke-linecap:round;stroke-linejoin:round"></line><line x1="153.77" y1="318.92" x2="153.77" y2="120.64" style="fill:none;stroke:#263238;stroke-linecap:round;stroke-linejoin:round"></line><line x1="87.37" y1="235.54" x2="403.98" y2="235.54" style="fill:none;stroke:#263238;stroke-linecap:round;stroke-linejoin:round"></line><line x1="249.61" y1="113.06" x2="167.6" y2="163.6" style="fill:none;stroke:#263238;stroke-linecap:round;stroke-linejoin:round;stroke-width:0.5px"></line><line x1="260.44" y1="116.48" x2="194.73" y2="156.96" style="fill:none;stroke:#263238;stroke-linecap:round;stroke-linejoin:round;stroke-width:0.5px"></line><line x1="289.13" y1="98.8" x2="269.28" y2="111.02" style="fill:none;stroke:#263238;stroke-linecap:round;stroke-linejoin:round;stroke-width:0.5px"></line></g></g><g id="freepik--Table--inject-107"><line x1="110.54" y1="374.29" x2="389.74" y2="374.29" style="fill:none;stroke:#263238;stroke-miterlimit:10"></line></g><g id="freepik--Sheets--inject-107"><polygon points="245.53 390.81 260.54 425.31 310.09 418.99 281.33 390.81 245.53 390.81" style="fill:#fff;stroke:#263238;stroke-linecap:round;stroke-linejoin:round"></polygon><polygon points="298.9 387.82 332.73 412.8 279.43 419.99 257.07 388.42 298.9 387.82" style="fill:#fff;stroke:#263238;stroke-linecap:round;stroke-linejoin:round"></polygon></g><g id="freepik--Computer--inject-107"><polygon points="106.64 403.3 129.32 382.37 219.57 382.37 183.97 405.82 106.64 403.3" style="fill:#fff;stroke:#263238;stroke-linecap:round;stroke-linejoin:round"></polygon><polygon points="183.05 408.92 101.47 404.4 90.94 373.59 80.98 344.45 165.33 347.88 179.1 395.33 183.05 408.92" style="fill:#fff;stroke:#263238;stroke-linecap:round;stroke-linejoin:round"></polygon><path d="M183.05,408.92l-81.58-4.52L90.94,373.59c13.42,1.54,26.94-.55,50.36,3.25,20.51,3.31,31.72,11.22,37.8,18.49Z" style="fill:#263238;stroke:#263238;stroke-miterlimit:10"></path><polygon points="219.57 383.02 219.57 385.9 183.78 408.72 163.14 348.86 166.26 347.46 185.3 404.4 219.57 383.02" style="fill:#fff;stroke:#263238;stroke-miterlimit:10"></polygon><polygon points="166.73 347.25 163.14 348.86 81.66 343.99 85.85 341.95 166.64 346.96 166.73 347.25" style="fill:#fff;stroke:#263238;stroke-miterlimit:10"></polygon><path d="M166.73,347.25l-.09-.29-.14-.52-80.62-5h-.13l-5.36,2.61.11.37,82.61,4.93h.12l3.63-1.63Zm-3.69,1.1-79.45-4.74L86,342.46l79.29,4.91Z" style="fill:#263238"></path><line x1="185.3" y1="404.4" x2="183.78" y2="408.72" style="fill:#fff;stroke:#263238;stroke-miterlimit:10"></line></g><g id="freepik--Plant--inject-107"><path d="M373.23,365.25h-46.6s0,12.51,6.58,28.88c0,3.14,7.53,5.65,16.82,5.65s16.81-2.53,16.81-5.65a1.77,1.77,0,0,0,0-.46C373.16,377.52,373.23,365.25,373.23,365.25Z" style="fill:#fff;stroke:#263238;stroke-linecap:round;stroke-linejoin:round"></path><ellipse cx="350.09" cy="365.25" rx="23.4" ry="6.79" style="fill:#fff;stroke:#263238;stroke-linecap:round;stroke-linejoin:round"></ellipse><path d="M350.09,359.57c11.6,0,21,2.55,21,5.68s-9.4,5.68-21,5.68-21-2.54-21-5.68S338.49,359.57,350.09,359.57Z" style="fill:#fff;stroke:#263238;stroke-linecap:round;stroke-linejoin:round"></path><path d="M331.07,367.65c3.36,1.94,10.6,3.26,19,3.26s15.66-1.32,19-3.26c-3.35-1.92-10.61-3.26-19-3.26S334.43,365.73,331.07,367.65Z" style="fill:#263238;stroke:#263238;stroke-linecap:round;stroke-linejoin:round"></path><path d="M340.3,368.19S334.21,353,336,348.94s7.6-3.54,9.64.51,3,19.25,3,19.25S342.58,370.73,340.3,368.19Z" style="fill:#5B059E;stroke:#263238;stroke-linecap:round;stroke-linejoin:round"></path><path d="M345.63,369.71s-4.82-26.83-3.56-31.91,7.61-6.85,12.16-3.05,2.82,23.06,2.82,25.84-.25,8.62-.25,8.62A21.19,21.19,0,0,1,345.63,369.71Z" style="fill:#5B059E;stroke:#263238;stroke-linecap:round;stroke-linejoin:round"></path><path d="M355.5,369.21s-3.76-10.4-1.51-14.45,6.83-2.53,6.83.76.26,11.16-.25,12.92S357.28,370.73,355.5,369.21Z" style="fill:#5B059E;stroke:#263238;stroke-linecap:round;stroke-linejoin:round"></path><path d="M349.93,369c-6.34-24-1-36-1-36s7.59,13.18,3.54,36" style="fill:none;stroke:#263238;stroke-linecap:round;stroke-linejoin:round"></path><path d="M339.54,348.43s-5.83.26,3.8,20.27" style="fill:none;stroke:#263238;stroke-linecap:round;stroke-linejoin:round"></path></g><g id="freepik--Character--inject-107"><path d="M275.89,352.54a50.66,50.66,0,0,1,10.72,22.37H206.74s1.57-14.1,6.47-22.37S275.89,352.54,275.89,352.54Z" style="fill:#263238"></path><path d="M314.4,244.47c-3.33-2.74-32.14-14.66-32.14-14.66-1.54-9.22-6.6-13.72-6.6-13.72s-17.45-5.07-23-.77a33.37,33.37,0,0,0-8.29,9.29c-23.43-1.49-31.33,6.32-31.33,6.32s-8.3,34.72-13.39,52.8a179.71,179.71,0,0,1-12.36,31.85s-7.54,11.58-2.27,17.85,27.87,6.38,27.87,6.38l-4.12,22.66s6.2,5,31.13,10.81S285.12,364,285.12,364l-8.66-22.29c9-1.82,22.61-11.76,22.61-11.76,13.51-20,18.17-73.3,18.51-77.26S317.72,247.21,314.4,244.47Zm-34,71.11s-4.21-2.5-4.33-2.56l-.18-7,16.87-19Z" style="fill:#5B059E"></path><path d="M314.4,244.47c-3.33-2.74-32.14-14.66-32.14-14.66-1.54-9.22-6.6-13.72-6.6-13.72s-17.45-5.07-23-.77a33.37,33.37,0,0,0-8.29,9.29c-23.43-1.49-31.33,6.32-31.33,6.32s-8.3,34.72-13.39,52.8a179.71,179.71,0,0,1-12.36,31.85s-7.54,11.58-2.27,17.85,27.87,6.38,27.87,6.38l-4.12,22.66s6.2,5,31.13,10.81S285.12,364,285.12,364l-8.66-22.29c9-1.82,22.61-11.76,22.61-11.76,13.51-20,18.17-73.3,18.51-77.26S317.72,247.21,314.4,244.47Zm-34,71.11s-4.21-2.5-4.33-2.56l-.18-7,16.87-19Z" style="opacity:0.1"></path><path d="M237.85,323.54s-5.19,7.32-6,12.88a54.63,54.63,0,0,0,11-.39c5.66-.84,8.27-.21,12.48-9.8l3.9-.06s5.12,7.62,12.85,6c0,0,1.59,1.31,4.32.06l-8.66-11s11.48,10.29,15.33,5.31l-14.32-9.79s7.21,1.24,10.93,3.22,5.09-2.61,5.09-2.61L272.89,312s-9.09.73-11.26-.06-3.54-1.84-5.14-.28-13.21,11.41-13.21,11.41Z" style="fill:#fff"></path><path d="M232.18,336.48s15.28,0,17.92-1.94,5.22-8.31,5.22-8.31l3.9-.06s7.53,7.9,12.85,6c0,0-12.76-13.57-15-14.35" style="fill:none;stroke:#263238;stroke-linecap:round;stroke-linejoin:round;stroke-width:0.9856583476066589px"></path><path d="M271.6,331.64a4.15,4.15,0,0,0,4.79.55s-13.24-16.34-16.16-16.82" style="fill:none;stroke:#263238;stroke-linecap:round;stroke-linejoin:round;stroke-width:0.9856583476066589px"></path><path d="M238.77,323.13l4.51-.07s9.81-7.44,11.62-9.86,3.93-2.71,5.27-1.67,12.72.46,12.72.46l11.87,5.34s-1.66,3.76-4.32,2.88-8.65-3.5-11.7-3.49" style="fill:none;stroke:#263238;stroke-linecap:round;stroke-linejoin:round;stroke-width:0.9856583476066589px"></path><path d="M265.78,314.49s7.64,5.83,11,8,6.29,4,6.29,4-2.88,2.05-5.68.9-12.3-8.13-12.3-8.13" style="fill:none;stroke:#263238;stroke-linecap:round;stroke-linejoin:round;stroke-width:0.9856583476066589px"></path><path d="M232.4,338.25s.9-11.93,8.64-16.63l-11.89-2.07s-8,8.93-7.72,18.33Z" style="fill:#fff"></path><path d="M248.49,238s-1.74-15.85,4.14-22.72a56.92,56.92,0,0,0-18.75,35.09S243.82,238.87,248.49,238Z" style="fill:#fff"></path><path d="M215.31,317.1l-6.44-9.75a.52.52,0,0,0-.93.44,29.2,29.2,0,0,0,3.23,7l-7.31-6.11a.78.78,0,0,0-1.25.82c.69,2.21,2.1,5.47,4.72,7.41Z" style="fill:#fff;stroke:#263238;stroke-miterlimit:10"></path><path d="M275.66,216.08s4.77,4.19,5.69,9,2.45,14,2.45,14l-10.67,21.44s-6.27-15.38-16-19.31C257.16,241.15,273.61,231.25,275.66,216.08Z" style="fill:#fff"></path><path d="M275.66,216.09c.82,1.15,8.78-.85,9.85-1.1,6.14-1.46,12.14-4.55,15.57-10.05,4.55-7.29,3.09-14.77,1.14-22.56-1.43-5.71-3-11.38-4.6-17-1.4-5-2.18-10.3-4.3-15-3.06-6.77-8-12.72-14.81-15.88-18.62-8.6-44.67,5.15-51.41,10.67s-7.25,21.54,9.08,30.67S275.62,216,275.66,216.09Z" style="fill:#263238"></path><path d="M240.65,155.77s-6.54,5.31-6.75,8.35.78,6.31.4,12.15-1.47,16.36,3.65,23.32c0,0,3.49,8.27,14.05,12.57l.63,3.16s-4.27,8.94-4.48,16.42c-.14,5.28,1.15,10.11,9.93,9.35,12.07-7.15,17.16-23.18,17.16-23.18l-3.82-18.47,1-9.25s5.67.44,7.37-4.46c0,0,3.31-16.09-8.66-4.68C256.2,177.15,246.06,167.8,240.65,155.77Z" style="fill:#fff"></path><path d="M244.91,194.72a7,7,0,0,0,8.76-2.06" style="fill:none;stroke:#263238;stroke-linecap:round;stroke-linejoin:round;stroke-width:0.75px"></path><path d="M243.58,176.77s-1.73,10.11-1.1,12.53c0,0,1.53,1.83,5.17,1.36" style="fill:none;stroke:#263238;stroke-linecap:round;stroke-linejoin:round"></path><path d="M240.65,155.77s-5.29,5-7.19,9.25a110.1,110.1,0,0,1,.84,11.25c0,4.68-2.12,13,2.3,21.1S250.54,213.28,256,213s15.23-5.81,16.95-21.29c0,0,9.46-1.06,9-5.3C281.91,186.44,290.2,172,240.65,155.77Z" style="fill:none;stroke:#263238;stroke-linecap:round;stroke-linejoin:round"></path><line x1="275.24" y1="217.91" x2="271.02" y2="199.8" style="fill:none;stroke:#263238;stroke-linecap:round;stroke-linejoin:round"></line><path d="M248.49,238a7.48,7.48,0,0,0,2,1.68,11.44,11.44,0,0,0,7.54,1.37" style="fill:none;stroke:#263238;stroke-linecap:round;stroke-linejoin:round"></path><path d="M252,212.16c.19,1.06.63,3.16.63,3.16l-.34.56" style="fill:none;stroke:#263238;stroke-linecap:round;stroke-linejoin:round"></path><path d="M243.4,177.7c.26,5.08-2.73,9.36-6.68,9.57s-7.38-3.75-7.64-8.83,2.74-9.36,6.69-9.57S243.14,172.62,243.4,177.7Z" style="fill:none;stroke:#263238;stroke-linecap:round;stroke-linejoin:round;stroke-width:0.75px"></path><ellipse cx="253.23" cy="176.3" rx="7.17" ry="9.21" transform="translate(-8.71 13.22) rotate(-2.94)" style="fill:none;stroke:#263238;stroke-linecap:round;stroke-linejoin:round;stroke-width:0.75px"></ellipse><path d="M254,312.84l-25.83-15.93a.45.45,0,0,1-.12-.52.44.44,0,0,1,.58-.22l25.84,15.95h0a.41.41,0,0,1,.13.58.42.42,0,0,1-.38.22A.37.37,0,0,1,254,312.84Z" style="fill:#263238"></path><path d="M240.42,307.79l-14-8.2a.44.44,0,0,1-.16-.6.45.45,0,0,1,.6-.14l14,8.2h0a.41.41,0,0,1,.15.57.44.44,0,0,1-.38.22A.4.4,0,0,1,240.42,307.79Z" style="fill:#263238"></path><path d="M302.72,266.69a.44.44,0,0,1-.2-.58,183.82,183.82,0,0,1,12.33-20,.44.44,0,0,1,.6-.12l0,0a.43.43,0,0,1,.1.59,180.14,180.14,0,0,0-12.27,19.87.44.44,0,0,1-.4.26Z" style="fill:#263238"></path><path d="M241,321.62s-8.44,6.07-8.64,16.63H221.46a24.28,24.28,0,0,1,8.06-18.62Z" style="fill:none;stroke:#263238;stroke-linecap:round;stroke-linejoin:round"></path><line x1="280.4" y1="314.78" x2="297.01" y2="277.54" style="fill:none;stroke:#263238;stroke-linecap:round;stroke-linejoin:round"></line><path d="M221.46,338.25s-18.84,4.47-32.07-1.71-3.08-19.44-3.08-19.44c12.35-18.17,26.7-86.16,26.7-86.16s3.36-7.35,30.12-6.35" style="fill:none;stroke:#263238;stroke-linecap:round;stroke-linejoin:round"></path><path d="M229.52,319.63s-23.15-5.08-32.63-1.46" style="fill:none;stroke:#263238;stroke-linecap:round;stroke-linejoin:round"></path><path d="M206.86,316.7s-3.55-4.31-4.6-7.5a.77.77,0,0,1,1.24-.82l7.67,6.4a76.47,76.47,0,0,1-3.46-7,.66.66,0,0,1,1.15-.64L216,317.35" style="fill:none;stroke:#263238;stroke-linecap:round;stroke-linejoin:round"></path><path d="M282.26,229.8l30.6,13.77a8.16,8.16,0,0,1,4.8,8.06c-1.22,15.95-5.24,55.54-18.94,78.93,0,0-35.81,29-77.26,7.69" style="fill:none;stroke:#263238;stroke-linecap:round;stroke-linejoin:round"></path><polyline points="293.51 285.37 275.88 306.02 276.07 313.02" style="fill:none;stroke:#263238;stroke-linecap:round;stroke-linejoin:round"></polyline><path d="M242.69,275.06s3.95-14.06,9.52-22.13" style="fill:none;stroke:#263238;stroke-linecap:round;stroke-linejoin:round"></path><path d="M212.87,339.81l-4.12,22.66s42,25.34,76.38,1.53l-8.5-21.93" style="fill:none;stroke:#263238;stroke-linecap:round;stroke-linejoin:round"></path><path d="M215.42,250.1l-1.67,22.09s-10.44,17,1.67,30.08l.59,15.08" style="fill:none;stroke:#263238;stroke-linecap:round;stroke-linejoin:round"></path><path d="M258.53,241s14.16-9.57,17.13-24.93c0,0,5,4.6,6,10.27S283.8,239,283.8,239l-11.1,22.3s-6.35-16.43-12.15-17.88" style="fill:none;stroke:#263238;stroke-linecap:round;stroke-linejoin:round"></path><path d="M252.63,215.32s-5.94,6.48-4.14,22.72c0,0-11.35,6.83-14.87,13.47C233.62,251.51,240.08,221.94,252.63,215.32Z" style="fill:none;stroke:#263238;stroke-linecap:round;stroke-linejoin:round"></path><line x1="243.25" y1="176.3" x2="246.06" y2="176.3" style="fill:none;stroke:#263238;stroke-linecap:round;stroke-linejoin:round;stroke-width:0.75px"></line><path d="M233.88,181.58s-5.42,12.5-3,23.53,21.79,10.21,21.79,10.21l-.63-3.16S231.61,202.41,233.88,181.58Z" style="fill:#263238"></path><path d="M245,144.74s9.89,26.51,34,29.33" style="fill:none;stroke:#263238;stroke-linecap:round;stroke-linejoin:round;stroke-width:0.75px"></path><path d="M252,140.84s16.56,24.1,38.77,24.95" style="fill:none;stroke:#263238;stroke-linecap:round;stroke-linejoin:round;stroke-width:0.75px"></path><path d="M250.41,178.07s2-2.41,6.75-1" style="fill:none;stroke:#263238;stroke-linecap:round;stroke-linejoin:round"></path><path d="M241.43,179.29a6.35,6.35,0,0,0-6-1.22" style="fill:none;stroke:#263238;stroke-linecap:round;stroke-linejoin:round"></path><ellipse cx="254.94" cy="178.5" rx="1.4" ry="2.41" style="fill:#263238"></ellipse><path d="M241.18,180.26c0,1.1-.52,2-1.16,2s-1.15-.88-1.15-2,.52-2,1.15-2S241.18,179.17,241.18,180.26Z" style="fill:#263238"></path><path d="M247.65,172.16s2.93-3.93,8.69-2" style="fill:none;stroke:#263238;stroke-linecap:round;stroke-linejoin:round"></path><path d="M240,172.16s-3.2-2.92-5.78-.56" style="fill:none;stroke:#263238;stroke-linecap:round;stroke-linejoin:round"></path></g></svg>